<?xml version="1.0" encoding="utf-8"?>
<!-- Generator: Adobe Illustrator 26.2.0, SVG Export Plug-In . SVG Version: 6.00 Build 0)  -->
<svg version="1.1" id="Layer_1" xmlns="http://www.w3.org/2000/svg" xmlns:xlink="http://www.w3.org/1999/xlink" x="0px" y="0px"
	 viewBox="0 0 1920 1080" style="enable-background:new 0 0 1920 1080;" xml:space="preserve">
<style type="text/css">
	.st0{enable-background:new    ;}
	.st1{fill:#222A47;}
	.st2{fill:#46AAFF;}
	.st3{fill-rule:evenodd;clip-rule:evenodd;fill:#222A47;}
	.st4{fill-rule:evenodd;clip-rule:evenodd;fill:#46AAFF;}
</style>
<g>
	<g id="Group_228" transform="translate(-682.58 -551.688)">
		<g id="Group_111" transform="translate(88.817 60.688)">
			<g class="st0">
				<path class="st1" d="M1251.2,981.7H1192v109h-12.9V969.5h74c10.2,0,18.6,3.3,25.1,10c6.6,6.7,9.9,15.2,9.9,25.5
					c0,10.5-3.4,19.2-10.1,26.2c-6.7,7-15,10.5-24.9,10.5h-41.3v-12h39.5c7.2,0,13-2.3,17.5-6.8c4.5-4.5,6.7-10.6,6.7-18.1
					c0-7.2-2.1-12.8-6.3-16.9C1264.8,983.7,1258.9,981.7,1251.2,981.7z"/>
				<path class="st1" d="M1336.5,969.5h73.8c10.3,0,18.8,3.3,25.4,9.9c6.6,6.6,9.9,15,9.9,25.1c0,9.2-2.7,17.2-8.1,23.8
					c-5.4,6.7-12.6,11.2-21.7,13.5l35.7,48.9h-15.5l-35.5-48.6h-31v-12h37.8c7.4,0,13.4-2.3,18.2-7c4.8-4.7,7.2-11,7.2-18.8
					c0-7-2.1-12.6-6.3-16.6c-4.2-4-10.6-6-19-6h-57.8v109h-12.9V969.5z"/>
				<path class="st1" d="M1510.8,981.7v96.8h89.7v12.2h-102.7V969.5h101.7v12.2H1510.8z M1530.5,1022.8h55.2v11.7h-55.2V1022.8z"/>
				<path class="st1" d="M1720.8,981.7h-59.2v109h-12.9V969.5h74c10.2,0,18.6,3.3,25.1,10c6.6,6.7,9.9,15.2,9.9,25.5
					c0,10.5-3.4,19.2-10.1,26.2c-6.7,7-15,10.5-24.9,10.5h-41.3v-12h39.5c7.2,0,13-2.3,17.5-6.8c4.5-4.5,6.7-10.6,6.7-18.1
					c0-7.2-2.1-12.8-6.3-16.9C1734.4,983.7,1728.5,981.7,1720.8,981.7z"/>
				<path class="st1" d="M1900.7,1090.7h-14.1l-14.8-30.1h-55.7l5.6-11.7h44.6l-32.9-67.7l-53.1,109.5h-14.1l59.2-121.2h16
					L1900.7,1090.7z"/>
			</g>
		</g>
		<g id="Group_112" transform="translate(438.817 60.688)">
			<g class="st0">
				<path class="st1" d="M1648.9,969.5h73.8c10.3,0,18.8,3.3,25.4,9.9c6.6,6.6,9.9,15,9.9,25.1c0,9.2-2.7,17.2-8.1,23.8
					c-5.4,6.7-12.6,11.2-21.7,13.5l35.7,48.9h-15.5l-35.5-48.6h-31v-12h37.8c7.4,0,13.4-2.3,18.2-7c4.8-4.7,7.2-11,7.2-18.8
					c0-7-2.1-12.6-6.3-16.6c-4.2-4-10.6-6-19-6h-57.8v109h-12.9V969.5z"/>
				<path class="st1" d="M1823.2,981.7v96.8h89.7v12.2h-102.7V969.5H1912v12.2H1823.2z M1843,1022.8h55.2v11.7H1843V1022.8z"/>
			</g>
		</g>
		<rect id="Rectangle_106" x="2022.4" y="1066.8" class="st1" width="12.3" height="84.6"/>
		<rect id="Rectangle_107" x="2019.1" y="1030.4" class="st2" width="18.8" height="18.8"/>
	</g>
	<g id="Group_230" transform="translate(-652.589 -492.863)">
		<g id="Group_210" transform="translate(652.589 499.579)">
			<path id="Path_184" class="st3" d="M288.1,456.4c-6.5,0-11.7,5.3-11.7,11.7s5.3,11.7,11.7,11.7c2.7,0,5.3-0.9,7.4-2.6
				c3.1-2.6,7.1-4.1,11.2-4h15.2c5.1-0.1,9.9,2.1,13.2,5.9c6.1,6.8,16.6,7.4,23.4,1.3c6.8-6.1,7.4-16.6,1.3-23.4
				c-6.1-6.8-16.6-7.4-23.4-1.3c-0.6,0.6-1.2,1.2-1.7,1.8c-3.3,4.1-8.4,6.5-13.7,6.4h-13.3c-4.4,0.1-8.6-1.6-11.9-4.6
				C293.8,457.5,291,456.4,288.1,456.4 M312.8,493c-1.9,0-3.7,0.6-5.2,1.7c-3,2.2-6.6,3.3-10.3,3.3h-9.7c-4.8,0.1-9.4-1.9-12.7-5.4
				c-5.2-5.3-13.7-5.5-19.1-0.3s-5.5,13.7-0.3,19.1c5.1,5.3,13.5,5.5,18.8,0.5c3.2-3.1,7.6-4.8,12-4.7h12.7c3.2,0,6.4,0.8,9.1,2.5
				c4.3,2.5,9.8,1.2,12.3-3.1s1.2-9.8-3.1-12.3C316.1,493.5,314.5,493,312.8,493 M324.6,583.2H312c-5,0.1-9.8-2-13.1-5.8
				c-5.8-6.4-15.7-6.8-22.1-1s-6.8,15.7-1,22.1s15.7,6.8,22.1,1c0.4-0.4,0.8-0.8,1.2-1.3c3.3-3.9,8.2-6.2,13.4-6.1h12.5
				c3.7,0,7.3,1.1,10.3,3.3c4.4,3.1,10.4,2.1,13.5-2.3c3.1-4.4,2.1-10.4-2.3-13.5c-3.4-2.4-8-2.4-11.4,0.1
				C332.1,582.1,328.4,583.3,324.6,583.2 M296.3,529.6c-3.1,0-6.1,1.2-8.4,3.4c-3.3,3.3-7.8,5.1-12.4,5.1h-3.6c-3.5,0-7-1-9.9-3
				c-3.6-2.4-8.4-1.4-10.8,2.1c-2.4,3.6-1.4,8.4,2.1,10.8c2.7,1.8,6.2,1.8,8.9-0.1c3-2.2,6.6-3.4,10.3-3.3h2.5
				c4.8-0.1,9.4,1.9,12.7,5.3c4.6,4.7,12.2,4.8,16.9,0.2c4.7-4.6,4.8-12.2,0.2-16.9C302.6,530.9,299.5,529.6,296.3,529.6"/>
			<path id="Path_296" class="st4" d="M326.7,415c-6.5,0-11.7,5.2-11.7,11.7c0,6.5,5.2,11.7,11.7,11.7c6.5,0,11.7-5.2,11.7-11.7
				C338.4,420.3,333.2,415,326.7,415C326.7,415,326.7,415,326.7,415 M354.5,609.7c-3.4,0-6.1,2.7-6.1,6.1c0,3.4,2.7,6.1,6.1,6.1
				c3.4,0,6.1-2.7,6.1-6.1c0,0,0,0,0,0C360.5,612.4,357.8,609.7,354.5,609.7 M322,608.7c-7.4,0-13.4,6-13.4,13.4
				c0,7.4,6,13.4,13.4,13.4c7.4,0,13.4-6,13.4-13.4C335.4,614.7,329.4,608.7,322,608.7C322,608.7,322,608.7,322,608.7 M293.6,432.3
				c-3.7,0-6.7,3-6.8,6.7c0,3.7,3,6.7,6.7,6.8c3.7,0,6.7-3,6.8-6.7c0,0,0,0,0,0C300.3,435.3,297.3,432.3,293.6,432.3 M353.6,424.8
				c-4,0-7.2,3.2-7.2,7.2s3.2,7.2,7.2,7.2c4,0,7.2-3.2,7.2-7.2c0,0,0,0,0,0C360.8,428.1,357.6,424.8,353.6,424.8"/>
			<g id="Group_200" transform="translate(33.287 36.66)">
				<path id="Path_184-2" class="st4" d="M306.7,488.4c-6.6,0-12,5.4-12,12s5.4,12,12,12s12-5.4,12-12l0,0
					C318.7,493.8,313.3,488.4,306.7,488.4C306.7,488.4,306.7,488.4,306.7,488.4"/>
				<g id="Group_223" transform="translate(8.213 0)">
					<path id="Path_184-3" class="st4" d="M313,464.5c-3.9,0-7.1,3.2-7.1,7.1c0,3.9,3.2,7.1,7.1,7.1c3.9,0,7.1-3.2,7.1-7.1
						C320.1,467.7,316.9,464.5,313,464.5L313,464.5"/>
				</g>
				<path id="Path_297" class="st4" d="M320.9,520.3c-3.3,0-6.1,2.7-6.1,6.1s2.7,6.1,6.1,6.1c3.3,0,6.1-2.7,6.1-6.1
					C327,523,324.3,520.3,320.9,520.3C320.9,520.3,320.9,520.3,320.9,520.3"/>
			</g>
			<path id="Path_298" class="st4" d="M258.1,560.1c-3.7,0-6.6,3-6.6,6.6c0,3.7,3,6.6,6.6,6.6c3.7,0,6.6-3,6.6-6.6c0,0,0,0,0,0
				C264.7,563.1,261.7,560.1,258.1,560.1 M318.2,557.5c-3.7,0-6.6,3-6.6,6.6c0,3.7,3,6.6,6.6,6.6c3.7,0,6.6-3,6.6-6.6l0,0
				C324.8,560.4,321.8,557.5,318.2,557.5"/>
		</g>
		<g id="Group_224" transform="translate(706.694 499.579)">
			<path id="Path_184-4" class="st3" d="M398.9,456.4c6.5,0,11.7,5.3,11.7,11.7s-5.3,11.7-11.7,11.7c-2.7,0-5.3-0.9-7.4-2.6
				c-3.1-2.6-7.1-4.1-11.2-4h-15.2c-5.1-0.1-9.9,2.1-13.2,5.9c-6.1,6.8-16.6,7.4-23.4,1.3c-6.8-6.1-7.4-16.6-1.3-23.4
				c6.1-6.8,16.6-7.4,23.4-1.3c0.6,0.6,1.2,1.2,1.7,1.8c3.3,4.1,8.4,6.5,13.7,6.4h13.3c4.4,0.1,8.6-1.6,11.9-4.6
				C393.2,457.5,396,456.4,398.9,456.4 M374.1,493c1.9,0,3.7,0.6,5.2,1.7c3,2.2,6.6,3.3,10.3,3.3h9.7c4.8,0.1,9.4-1.9,12.7-5.4
				c5.2-5.3,13.7-5.5,19.1-0.3s5.5,13.7,0.3,19.1c-5.1,5.3-13.5,5.5-18.8,0.5c-3.2-3.1-7.6-4.8-12-4.7h-12.7c-3.2,0-6.4,0.8-9.1,2.5
				c-4.3,2.5-9.8,1.2-12.3-3.1s-1.2-9.8,3.1-12.3C370.9,493.5,372.5,493,374.1,493 M362.4,583.2h12.5c5,0.1,9.8-2,13.1-5.8
				c5.8-6.4,15.7-6.8,22.1-1s6.8,15.7,1,22.1c-5.8,6.4-15.7,6.8-22.1,1c-0.4-0.4-0.8-0.8-1.2-1.3c-3.3-3.9-8.2-6.2-13.4-6.1h-12.5
				c-3.7,0-7.3,1.1-10.3,3.3c-4.4,3.1-10.4,2.1-13.5-2.3c-3.1-4.4-2.1-10.4,2.3-13.5c3.4-2.4,8-2.4,11.4,0.1
				C354.9,582.1,358.6,583.3,362.4,583.2 M390.7,529.6c3.1,0,6.1,1.2,8.4,3.4c3.3,3.3,7.8,5.1,12.4,5.1h3.6c3.5,0,7-1,9.9-3
				c3.6-2.4,8.4-1.4,10.8,2.1c2.4,3.6,1.4,8.4-2.1,10.8c-2.7,1.8-6.2,1.8-8.9-0.1c-3-2.2-6.6-3.4-10.3-3.3h-2.5
				c-4.8-0.1-9.4,1.9-12.7,5.3c-4.6,4.7-12.2,4.8-16.9,0.2c-4.7-4.6-4.8-12.2-0.2-16.9C384.4,530.9,387.5,529.6,390.7,529.6"/>
			<path id="Path_296-2" class="st4" d="M360.3,415c6.5,0,11.7,5.2,11.7,11.7c0,6.5-5.2,11.7-11.7,11.7c-6.5,0-11.7-5.2-11.7-11.7
				C348.6,420.3,353.8,415,360.3,415C360.3,415,360.3,415,360.3,415 M332.5,609.7c3.4,0,6.1,2.7,6.1,6.1c0,3.4-2.7,6.1-6.1,6.1
				c-3.4,0-6.1-2.7-6.1-6.1c0,0,0,0,0,0C326.4,612.4,329.2,609.7,332.5,609.7 M365,608.7c7.4,0,13.4,6,13.4,13.4
				c0,7.4-6,13.4-13.4,13.4c-7.4,0-13.4-6-13.4-13.4C351.6,614.7,357.6,608.7,365,608.7C365,608.7,365,608.7,365,608.7 M393.4,432.3
				c3.7,0,6.7,3,6.8,6.7c0,3.7-3,6.7-6.7,6.8c-3.7,0-6.7-3-6.8-6.7c0,0,0,0,0,0C386.7,435.3,389.7,432.3,393.4,432.3 M333.4,424.8
				c4,0,7.2,3.2,7.2,7.2c0,4-3.2,7.2-7.2,7.2c-4,0-7.2-3.2-7.2-7.2c0,0,0,0,0,0C326.2,428.1,329.4,424.8,333.4,424.8"/>
			<g id="Group_200-2" transform="translate(1.081 36.66)">
				<path id="Path_184-5" class="st4" d="M345.9,488.4c6.6,0,12,5.4,12,12s-5.4,12-12,12c-6.6,0-12-5.4-12-12l0,0
					C333.9,493.8,339.3,488.4,345.9,488.4C345.9,488.4,345.9,488.4,345.9,488.4"/>
				<g id="Group_223-2" transform="translate(0 0)">
					<path id="Path_184-6" class="st4" d="M331.4,464.5c3.9,0,7.1,3.2,7.1,7.1c0,3.9-3.2,7.1-7.1,7.1s-7.1-3.2-7.1-7.1
						C324.3,467.7,327.5,464.5,331.4,464.5L331.4,464.5"/>
				</g>
				<path id="Path_297-2" class="st4" d="M331.7,520.3c3.3,0,6.1,2.7,6.1,6.1s-2.7,6.1-6.1,6.1c-3.3,0-6.1-2.7-6.1-6.1
					C325.6,523,328.3,520.3,331.7,520.3C331.7,520.3,331.7,520.3,331.7,520.3"/>
			</g>
			<path id="Path_298-2" class="st4" d="M428.9,560.1c3.7,0,6.6,3,6.6,6.6c0,3.7-3,6.6-6.6,6.6c-3.7,0-6.6-3-6.6-6.6c0,0,0,0,0,0
				C422.3,563.1,425.3,560.1,428.9,560.1 M368.8,557.5c3.7,0,6.6,3,6.6,6.6s-3,6.6-6.6,6.6c-3.7,0-6.6-3-6.6-6.6
				C362.2,560.4,365.1,557.5,368.8,557.5"/>
		</g>
	</g>
</g>
</svg>
